PathFileType	4	(X/Y/Z)	/Users/itak/Documents/Research/Walk-IL/dataset/trc/00363_00011.trc
DataRate	CameraRate	NumFrames	NumMarkers	Units	OrigDataRate	OrigDataStartFrame	OrigNumFrames
100.000000	100.000000	4	56	mm	100.000000	156	416
Frame#	Time	RPSI			LPSI			L3			STRN			T10			C7			CLAV			RBAK			LBAK			LSHO			LUPA			LAEL			LAOL			LWPS			LFRA			LHPS			LHTS			RSHO			RUPA			RAEL			RAOL			RWPS			RFRA			RIFD			RHTS			RHPS			RBHD			LFHD			RFHD			LBHD			LHIP			RHIP			RASI			LASI			LKNE			LTHI			LANK			LTIP			LTOE			LMT1			LMT5			LHEE			RKNE			RTIP			RTOE			RMT1			RMT5			RHEE			LWTS			LIFD			RWTS			RTHI			RANK			*53			*54			*55			
		X1	Y1	Z1	X2	Y2	Z2	X3	Y3	Z3	X4	Y4	Z4	X5	Y5	Z5	X6	Y6	Z6	X7	Y7	Z7	X8	Y8	Z8	X9	Y9	Z9	X10	Y10	Z10	X11	Y11	Z11	X12	Y12	Z12	X13	Y13	Z13	X14	Y14	Z14	X15	Y15	Z15	X16	Y16	Z16	X17	Y17	Z17	X18	Y18	Z18	X19	Y19	Z19	X20	Y20	Z20	X21	Y21	Z21	X22	Y22	Z22	X23	Y23	Z23	X24	Y24	Z24	X25	Y25	Z25	X26	Y26	Z26	X27	Y27	Z27	X28	Y28	Z28	X29	Y29	Z29	X30	Y30	Z30	X31	Y31	Z31	X32	Y32	Z32	X33	Y33	Z33	X34	Y34	Z34	X35	Y35	Z35	X36	Y36	Z36	X37	Y37	Z37	X38	Y38	Z38	X39	Y39	Z39	X40	Y40	Z40	X41	Y41	Z41	X42	Y42	Z42	X43	Y43	Z43	X44	Y44	Z44	X45	Y45	Z45	X46	Y46	Z46	X47	Y47	Z47	X48	Y48	Z48	X49	Y49	Z49	X50	Y50	Z50	X51	Y51	Z51	X52	Y52	Z52	X53	Y53	Z53	X54	Y54	Z54	X55	Y55	Z55	X56	Y56	Z56	

157	1.56	-355.27294921875	936.1994018554688	800.5259399414062	-412.06494140625	935.1966552734375	682.9618530273438	-393.6971740722656	999.8440551757812	735.8555908203125	-182.2574920654297	1175.326538085938	637.9669189453125	-411.7935791015625	1116.16748046875	715.96337890625	-373.2993774414062	1360.17724609375	678.8632202148438	-221.7859191894531	1302.618408203125	644.3706665039062	-402.9688110351562	1221.925048828125	757.8768310546875	-413.0496215820312	1322.255737304688	582.0333862304688	-342.7490844726562	1336.870727539062	506.6820373535156	-367.0445861816406	1214.625732421875	445.4500427246094	-318.6703491210938	1016.525817871094	415.4306945800781	-368.5803527832031	988.677001953125	478.923828125	-161.1912078857422	815.2976684570312	400.0931701660156	-268.3514099121094	926.7073364257812	405.5604858398438	-127.1666564941406	755.2175903320312	405.81982421875	-80.28841400146484	788.908447265625	434.9375610351562	-276.8453674316406	1347.540283203125	822.0488891601562	-277.0534362792969	1287.283935546875	888.2491455078125	-295.0800170898438	1024.812866210938	947.3331909179688	-343.8890380859375	1015.943603515625	867.333984375	-245.9051055908203	776.6951904296875	980.0046997070312	-276.0277404785156	956.2198486328125	960.1834716796875	-245.3883209228516	605.4078979492188	930.4714965820312	-211.539794921875	675.6660766601562	926.2943115234375	-247.9125366210938	691.4374389648438	983.9506225585938	-274.3196411132812	1571.111450195312	742.8565063476562	-187.7327423095703	1564.956420898438	553.2184448242188	-144.8425598144531	1569.70751953125	644.5859375	-359.9222717285156	1562.526733398438	626.3713989257812	-382.4375610351562	871.2735595703125	552.9178466796875	-227.1517486572266	895.7933959960938	859.1893920898438	-160.7196044921875	924.5839233398438	769.5777587890625	-246.8137817382812	895.3284912109375	547.7611694335938	-387.9018859863281	423.89013671875	611.3135375976562	-375.2413024902344	559.5098266601562	582.312255859375	-668.5380859375	116.5530624389648	748.514892578125	-531.0828857421875	252.8433380126953	671.2036743164062	-488.2856750488281	42.79058837890625	768.0996704101562	-538.9203491210938	39.71015167236328	820.58935546875	-570.161376953125	53.26818466186523	710.4652099609375	-678.3929443359375	140.5219116210938	819.009521484375	-42.67109298706055	469.4631652832031	761.7891845703125	-10.185302734375	354.3836059570312	743.81494140625	125.7979965209961	63.59184265136719	626.30322265625	58.66047668457031	49.44852066040039	614.7470703125	79.75873565673828	37.14322280883789	729.5037841796875	-81.97115325927734	45.04409790039062	745.53076171875	-128.9899139404297	847.8467407226562	452.3241271972656	-39.77809906005859	713.6076049804688	452.4156188964844	-220.3863372802734	780.29443359375	907.8206787109375	-100.6258850097656	716.5425415039062	812.6627807617188	-15.3880500793457	46.30931854248047	765.84912109375	nan	nan	nan	nan	nan	nan	nan	nan	nan	
158	1.57	-342.3965454101562	937.9329833984375	797.386962890625	-400.1676940917969	935.7550048828125	680.3052368164062	-380.7796325683594	1000.651123046875	733.501708984375	-171.1598510742188	1176.797241210938	633.95166015625	-399.5012512207031	1116.89013671875	714.5354614257812	-362.1370849609375	1361.21533203125	677.5446166992188	-211.03662109375	1303.96044921875	640.9955444335938	-390.4709777832031	1222.813842773438	756.779296875	-403.0966796875	1323.324829101562	581.25048828125	-333.9559936523438	1338.070556640625	504.9988403320312	-359.7295532226562	1215.7822265625	444.4281616210938	-314.4911499023438	1016.8603515625	415.5223388671875	-363.6435546875	990.4662475585938	480.2457885742188	-163.6840057373047	810.35205078125	398.1988830566406	-266.8131713867188	925.25634765625	405.2175598144531	-131.6673583984375	749.1944580078125	403.4466857910156	-83.06317138671875	781.5625	431.0848388671875	-263.738525390625	1348.726928710938	819.3016357421875	-262.62744140625	1288.420532226562	885.5302124023438	-278.0906677246094	1025.77978515625	944.6878662109375	-328.7819519042969	1016.890075683594	865.8120727539062	-227.7859344482422	777.7708740234375	976.138427734375	-258.4879455566406	957.33154296875	956.9503173828125	-229.3024597167969	606.3446044921875	926.2592163085938	-194.9551239013672	676.5435180664062	921.6007080078125	-229.8358154296875	692.4683227539062	980.185791015625	-262.1390075683594	1572.433471679688	739.6908569335938	-178.5496826171875	1565.72265625	548.7380981445312	-134.2330169677734	1570.648315429688	639.3999633789062	-349.5422973632812	1563.656127929688	624.5348510742188	-371.2508850097656	871.446533203125	550.2503662109375	-213.5427093505859	898.400390625	855.456787109375	-148.1624145507812	926.48779296875	765.314697265625	-235.9092407226562	896.08984375	544.4766845703125	-371.81201171875	422.9160461425781	606.0021362304688	-360.4017333984375	558.7374267578125	577.7455444335938	-660.9715576171875	126.2034454345703	748.75390625	-520.1123657226562	257.3190307617188	668.10546875	-488.5767517089844	42.37496948242188	767.8794555664062	-536.1307983398438	42.28107452392578	820.6173706054688	-568.53662109375	55.10919189453125	710.4027709960938	-668.0053100585938	151.9006042480469	818.6353149414062	-32.15433883666992	470.3190002441406	758.0154418945312	-2.057478666305542	354.2865905761719	740.707763671875	127.5292510986328	59.29531860351562	625.843505859375	60.0579833984375	46.9146614074707	614.5370483398438	80.56248474121094	35.35350799560547	729.6384887695312	-80.85732269287109	46.31740570068359	745.2745361328125	-129.2670288085938	842.1666259765625	449.2857055664062	-44.5076789855957	705.2236328125	448.045166015625	-204.0761413574219	781.3021850585938	903.3438110351562	-88.3857421875	717.8345336914062	808.289306640625	-14.37000370025635	46.37453842163086	765.7218627929688	nan	nan	nan	nan	nan	nan	nan	nan	nan	
159	1.58	-329.72509765625	939.757080078125	794.2907104492188	-388.53857421875	936.40966796875	677.75390625	-367.8490905761719	1001.60205078125	731.2237548828125	-160.1826782226562	1178.4248046875	629.7535400390625	-387.2302856445312	1117.7724609375	713.1600952148438	-351.0393371582031	1362.389892578125	676.174560546875	-200.4076232910156	1305.453369140625	637.4605102539062	-377.93359375	1223.850219726562	755.69921875	-393.3020935058594	1324.534912109375	580.5145263671875	-325.3750915527344	1339.43994140625	503.3328857421875	-352.5916442871094	1217.156127929688	443.4224853515625	-310.3673095703125	1017.50830078125	415.7330322265625	-358.5955200195312	992.5542602539062	481.7370300292969	-166.9521026611328	805.5086059570312	396.3494567871094	-265.556884765625	924.0660400390625	404.9762268066406	-137.1766052246094	743.2595825195312	401.1362915039062	-86.77083587646484	774.0582885742188	427.1273498535156	-250.5961456298828	1350.107055664062	816.4026489257812	-248.1110687255859	1289.79150390625	882.6596069335938	-260.8510437011719	1026.992553710938	941.8778076171875	-313.4752197265625	1018.0283203125	864.1871337890625	-209.1959381103516	779.1192626953125	972.0266723632812	-240.6703338623047	958.7058715820312	953.5457153320312	-211.9999389648438	607.7831420898438	922.1983032226562	-177.8185729980469	677.753173828125	916.708740234375	-211.1344757080078	693.7708129882812	976.166259765625	-249.9748992919922	1573.88671875	736.424560546875	-169.4738159179688	1566.576538085938	544.1773681640625	-123.7024459838867	1571.655151367188	634.1123046875	-339.2088928222656	1564.96240234375	622.6435546875	-360.3721313476562	871.8135375976562	547.656494140625	-200.1673583984375	901.0546264648438	851.6375732421875	-135.7863311767578	928.4639282226562	760.9768676757812	-225.3518371582031	897.099853515625	541.1719360351562	-355.1096801757812	421.9549560546875	599.7199096679688	-345.0814514160156	557.9515380859375	572.5830688476562	-651.95703125	136.4081420898438	748.7962646484375	-508.1293640136719	262.0722961425781	664.5790405273438	-488.3775024414062	41.61551284790039	767.4575805664062	-532.6360473632812	45.373046875	820.4143676757812	-566.33740234375	57.53285598754883	710.284912109375	-655.87548828125	163.6868286132812	818.0673828125	-22.17734336853027	470.8560180664062	754.8814086914062	5.388255596160889	353.9420471191406	738.2974853515625	129.0079956054688	55.68681335449219	625.5996704101562	61.24578857421875	45.03456497192383	614.482666015625	81.23060607910156	34.03332138061523	729.9459228515625	-79.93093872070312	47.40612030029297	745.1275634765625	-130.1488037109375	836.4181518554688	446.1366577148438	-50.40532302856445	696.6702880859375	443.5260620117188	-187.3634490966797	782.6157836914062	898.65771484375	-76.36918640136719	719.2978515625	804.036865234375	-13.58500576019287	46.43018341064453	765.673828125	nan	nan	nan	nan	nan	nan	nan	nan	nan	
160	1.59	-317.3075561523438	941.6282348632812	791.2669677734375	-377.2324523925781	937.1100463867188	675.328125	-354.9545288085938	1002.606506347656	728.9954223632812	-149.3812103271484	1180.14306640625	625.3663330078125	-375.0289306640625	1118.776000976562	711.8582763671875	-340.0207214355469	1363.659790039062	674.7483520507812	-189.9270935058594	1307.0439453125	633.7529296875	-365.3785400390625	1225.008178710938	754.6442260742188	-383.6955261230469	1325.837280273438	579.836181640625	-317.044677734375	1340.918701171875	501.6758117675781	-345.6785888671875	1218.672485351562	442.44091796875	-306.3092346191406	1018.397277832031	416.0361022949219	-353.4420471191406	994.842529296875	483.3583679199219	-170.9691619873047	800.8421630859375	394.5566101074219	-264.5687255859375	923.1248168945312	404.818603515625	-143.6301422119141	737.5078735351562	398.9199523925781	-91.39247131347656	766.4754638671875	423.1300964355469	-237.4299163818359	1351.62890625	813.3443603515625	-233.5177612304688	1291.3466796875	879.6180419921875	-243.4020843505859	1028.406982421875	938.9085693359375	-297.9813842773438	1019.297790527344	862.4730834960938	-190.1634216308594	780.7049560546875	967.6661376953125	-222.6345520019531	960.2844848632812	949.9990234375	-193.4635772705078	609.7044677734375	918.290283203125	-160.1298980712891	679.2765502929688	911.6002197265625	-191.8282318115234	695.3131713867188	971.8847045898438	-237.8527069091797	1575.438354492188	733.0551147460938	-160.5263519287109	1567.494506835938	539.5377807617188	-113.2793350219727	1572.70263671875	628.7230224609375	-328.94580078125	1566.414794921875	620.6968994140625	-349.8472290039062	872.2843627929688	545.179443359375	-187.1058807373047	903.6547241210938	847.7645263671875	-123.616455078125	930.4822387695312	756.57568359375	-215.1878509521484	898.2833862304688	537.8494873046875	-337.9619140625	421.0658264160156	592.5888061523438	-329.4341735839844	557.1470947265625	566.9121704101562	-641.4163818359375	147.0283966064453	748.42822265625	-495.1312866210938	266.9895629882812	660.6552124023438	-487.4072875976562	40.46629333496094	766.7329711914062	-528.2656860351562	49.01818084716797	819.8433227539062	-563.2926635742188	60.68059158325195	710.0015258789062	-642.0863647460938	175.6178436279297	817.155517578125	-12.8263053894043	471.0730590820312	752.3310546875	12.17057228088379	353.3827819824219	736.462646484375	130.1822967529297	52.73067855834961	625.4369506835938	62.18424224853516	43.68642807006836	614.47802734375	81.76674652099609	33.12237548828125	730.298095703125	-79.18353271484375	48.30971145629883	745.0672607421875	-131.6325836181641	830.6401977539062	442.9112548828125	-57.48757171630859	688.0132446289062	438.9178161621094	-170.2666625976562	784.1971435546875	893.767333984375	-64.60152435302734	720.8814697265625	799.9119262695312	-12.99918365478516	46.47583389282227	765.6588745117188	nan	nan	nan	nan	nan	nan	nan	nan	nan	
